<svg id="Buttons" xmlns="http://www.w3.org/2000/svg" viewBox="0 0 207.4 240"><title>operator</title><path id="operator" d="M330.19,327.22c-2.26-42.9-40.81-60.64-40.81-60.64-9.21-4.31-25.91-12.74-36.86-18.31,14-15.34,18.17-40.37,18.82-43.92,2.93-16.11,1.46-36.05,1.46-36.05-2.68-38.77-41.83-39.38-45.92-39.34h-.69c-3.72-.05-43.3.34-46,39.34,0,0-1.47,19.94,1.45,36.05.19,1,.69,3.93,1.63,7.84,7.37,9.68,18.76,14.43,28.1,16.75a6.51,6.51,0,0,1,4.55-1.85h17a6.53,6.53,0,0,1,0,13.05h-17a6.53,6.53,0,0,1-6-3.94,65.69,65.69,0,0,1-22.23-9.72c2.87,7.46,7,15.45,12.76,21.8-10.95,5.57-27.64,14-36.86,18.31,0,0-38.55,17.74-40.81,60.64,0,0-.67,7.13,12.85,9.84a456.49,456.49,0,0,0,90.85,9.45,456.48,456.48,0,0,0,90.85-9.45C330.87,334.35,330.19,327.22,330.19,327.22ZM167,218.24h4.11V169.92c0-.12,0-.24,0-.36v-7.14c0-12.72,3.93-23,11.67-30.65,16-15.76,43.38-15.54,43.84-15.48s27.46-.41,43.55,15.34c7.8,7.63,11.75,18,11.75,30.79V170c0,.07,0,.14,0,.22v48.05h4.12a18.33,18.33,0,0,0,18.33-18.33V182.3a18.33,18.33,0,0,0-12.67-17.43v-2.44c0-15.54-4.95-28.25-14.7-37.8-19-18.6-49.36-18.12-50.42-18.13-1.28,0-31.66-.39-50.65,18.25-9.71,9.53-14.64,22.21-14.64,37.68v2.43a18.33,18.33,0,0,0-12.69,17.43v17.62A18.33,18.33,0,0,0,167,218.24Z" transform="translate(-122.8 -106.5)" style="fill:#fff"/></svg>