<?xml version="1.0" encoding="utf-8"?>
<!-- Generator: Adobe Illustrator 25.2.1, SVG Export Plug-In . SVG Version: 6.00 Build 0)  -->
<svg version="1.1" id="Layer_1" xmlns="http://www.w3.org/2000/svg" xmlns:xlink="http://www.w3.org/1999/xlink" x="0px" y="0px"
	 viewBox="0 0 24.3 24.3" style="enable-background:new 0 0 24.3 24.3;" xml:space="preserve">
<style type="text/css">
	.st0{fill:#ffffff;}
</style>
<g>
	<g>
		<path class="st0" d="M15.9,16.8C15.9,16.8,15.9,16.8,15.9,16.8c-2.2,0-4.3-0.9-5.9-2.5c-1.6-1.6-2.5-3.7-2.5-5.9
			c0-2.2,0.9-4.3,2.5-5.9C11.5,0.9,13.6,0,15.9,0s4.3,0.9,5.9,2.5c1.6,1.6,2.5,3.7,2.5,5.9c0,2.2-0.9,4.3-2.5,5.9
			C20.2,15.9,18.1,16.8,15.9,16.8z M15.9,0.9c-2,0-3.9,0.8-5.3,2.2C9.2,4.5,8.4,6.4,8.4,8.4c0,2,0.8,3.9,2.2,5.3
			c1.4,1.4,3.3,2.2,5.3,2.2c2,0,3.9-0.8,5.3-2.2c1.4-1.4,2.2-3.3,2.2-5.3s-0.8-3.9-2.2-5.3C19.7,1.7,17.9,0.9,15.9,0.9z M15.9,14.8
			c-1.7,0-3.3-0.7-4.5-1.9c-2.5-2.5-2.5-6.6,0-9.1C12.5,2.6,14.1,2,15.9,2c1.7,0,3.3,0.7,4.5,1.9c1.2,1.2,1.9,2.8,1.9,4.5
			c0,1.7-0.7,3.3-1.9,4.5C19.2,14.1,17.6,14.8,15.9,14.8z M15.9,2.9c-1.5,0-2.8,0.6-3.9,1.6c-2.1,2.1-2.1,5.6,0,7.7
			c1,1,2.4,1.6,3.9,1.6c1.5,0,2.8-0.6,3.9-1.6c1-1,1.6-2.4,1.6-3.9c0-1.5-0.6-2.8-1.6-3.9C18.7,3.5,17.3,2.9,15.9,2.9z"/>
	</g>
	<g>
		<path class="st0" d="M2.1,24.3c-0.5,0-1.1-0.2-1.5-0.6c-0.8-0.8-0.8-2.1,0-2.9L9,12.5c0.1-0.1,0.2-0.1,0.4-0.1
			c0.1,0,0.3,0.1,0.3,0.2c0.3,0.4,0.6,0.8,0.9,1.1c0.4,0.4,0.8,0.7,1.2,1c0.1,0.1,0.2,0.2,0.2,0.3c0,0.1,0,0.3-0.1,0.4l-8.4,8.3
			C3.1,24.1,2.6,24.3,2.1,24.3z M9.2,13.5l-8,7.9c-0.4,0.4-0.4,1.1,0,1.6c0.4,0.4,1.1,0.4,1.6,0l8-7.9c-0.3-0.2-0.6-0.5-0.9-0.8
			C9.7,14.1,9.5,13.8,9.2,13.5z"/>
	</g>
</g>
</svg>
